<?xml version="1.0" encoding="UTF-8"?>
<svg version="1.1" xmlns="http://www.w3.org/2000/svg" width="160" height="180">
<path d="M0 0 C1.0094165 -0.00708481 2.01883301 -0.01416962 3.05883789 -0.02146912 C4.16026123 -0.0189917 5.26168457 -0.01651428 6.39648438 -0.01396179 C7.56107178 -0.01907272 8.72565918 -0.02418365 9.92553711 -0.02944946 C13.78048826 -0.04336568 17.63526107 -0.0423873 21.49023438 -0.04008484 C23.48944381 -0.04298855 25.48865332 -0.0458967 27.48786163 -0.04949158 C33.77252496 -0.06058241 40.0571285 -0.06102628 46.34179688 -0.05497742 C52.82432625 -0.04893409 59.30663878 -0.06125853 65.78913116 -0.08254749 C71.35697056 -0.10015999 76.92474089 -0.1061655 82.49260712 -0.10290974 C85.81716213 -0.1010965 89.14152773 -0.1050485 92.46606445 -0.11762428 C96.17220914 -0.12992387 99.87784813 -0.12323577 103.58398438 -0.11161804 C104.68540771 -0.11926178 105.78683105 -0.12690552 106.92163086 -0.13478088 C107.93104736 -0.12776657 108.94046387 -0.12075226 109.98046875 -0.11352539 C111.29452698 -0.113777 111.29452698 -0.113777 112.63513184 -0.1140337 C115.6041377 0.35837711 116.92890963 1.06773631 118.99023438 3.26069641 C119.48242569 5.78503704 119.48242569 5.78503704 119.47125244 8.86047363 C119.4767511 10.02575089 119.48224976 11.19102814 119.48791504 12.39161682 C119.46634338 14.31104095 119.46634338 14.31104095 119.44433594 16.26924133 C119.44320774 17.62927212 119.44384078 18.98930535 119.44610596 20.34933472 C119.44725514 24.04346696 119.42371343 27.73708127 119.39581013 31.43109298 C119.37083018 35.29079685 119.36845718 39.15051218 119.3637085 43.01028442 C119.35126864 50.32015487 119.31843355 57.62978646 119.27831054 64.93955165 C119.23362409 73.26107364 119.21161369 81.58260695 119.1915288 89.90421903 C119.14970166 107.02318307 119.07933018 124.14191449 118.99023438 141.26069641 C115.88259144 143.06937394 113.63603981 143.5101987 110.05639648 143.50793457 C109.06380829 143.51212906 108.07122009 143.51632355 107.04855347 143.52064514 C105.9658316 143.51502563 104.88310974 143.50940613 103.76757812 143.50361633 C102.04995773 143.50646385 102.04995773 143.50646385 100.29763794 143.5093689 C96.50760073 143.5130775 92.7177546 143.50237083 88.92773438 143.49116516 C86.29744489 143.48997327 83.66715498 143.48952022 81.03686523 143.48977661 C75.52227395 143.48884046 70.00773774 143.48016334 64.49316406 143.46650696 C58.11976835 143.45078198 51.74643293 143.4455089 45.37301922 143.44624251 C39.23915873 143.44685318 33.10532105 143.44163587 26.97146606 143.4334507 C24.36231607 143.43026442 21.75316429 143.42829672 19.14401245 143.42755699 C15.50027433 143.42539303 11.85661242 143.41664741 8.21289062 143.40596008 C7.13016876 143.40641327 6.0474469 143.40686646 4.93191528 143.40733337 C3.93932709 143.40306839 2.94673889 143.39880341 1.92407227 143.39440918 C1.06278214 143.39273334 0.201492 143.39105749 -0.68589783 143.38933086 C-3.00976562 143.26069641 -3.00976562 143.26069641 -7.00976562 142.26069641 C-7.00976562 97.38069641 -7.00976562 52.50069641 -7.00976562 6.26069641 C-7.99976563 5.93069641 -8.98976563 5.60069641 -10.00976562 5.26069641 C-9.00976562 2.26069641 -9.00976562 2.26069641 -7.26037598 1.08948994 C-4.69409239 0.14444886 -2.73301251 0.00640442 0 0 Z M-2.00976562 29.26069641 C-2.00976562 46.42069641 -2.00976562 63.58069641 -2.00976562 81.26069641 C3.44682925 77.90624536 3.44682925 77.90624536 5.55273438 75.69819641 C6.99023438 74.26069641 6.99023438 74.26069641 9.24023438 72.94819641 C12.27461792 71.08618833 14.78847077 68.92834379 17.43945312 66.56538391 C18.99023438 65.26069641 18.99023438 65.26069641 20.99023438 64.26069641 C20.99023438 63.60069641 20.99023438 62.94069641 20.99023438 62.26069641 C21.78880859 61.91071594 21.78880859 61.91071594 22.60351562 61.55366516 C25.70953941 59.8710238 28.40835638 57.74751817 31.17773438 55.57319641 C31.75507324 55.1240387 32.33241211 54.67488098 32.92724609 54.21211243 C34.0861926 53.3100824 35.24409169 52.40670484 36.40087891 51.50190735 C37.7480067 50.44986469 39.10092139 49.40523858 40.45507812 48.36225891 C48.29166211 42.32539675 55.98916292 36.26176786 62.99023438 29.26069641 C41.54023437 29.26069641 20.09023438 29.26069641 -2.00976562 29.26069641 Z M108.36523438 33.44819641 C105.67191025 35.84982478 102.9716031 38.04099814 99.99023438 40.07319641 C99.00023437 40.79507141 98.01023438 41.51694641 96.99023438 42.26069641 C96.99023438 42.92069641 96.99023438 43.58069641 96.99023438 44.26069641 C96.41273437 44.36382141 95.83523437 44.46694641 95.24023438 44.57319641 C92.6336228 45.36966106 91.01670328 46.45134918 88.99023438 48.26069641 C88.99023438 48.92069641 88.99023438 49.58069641 88.99023438 50.26069641 C87.93835938 50.60100891 87.93835938 50.60100891 86.86523438 50.94819641 C83.24894902 52.59910929 80.90253461 54.55157991 77.99023438 57.26069641 C77.99023438 57.92069641 77.99023438 58.58069641 77.99023438 59.26069641 C77.42046875 59.3470636 76.85070312 59.43343079 76.26367188 59.52241516 C73.3489802 60.46893875 71.83582352 61.97337615 69.61523438 64.07319641 C66.98587403 66.50263845 64.46555912 68.73795791 61.42773438 70.63569641 C60.62335938 71.17194641 59.81898437 71.70819641 58.99023438 72.26069641 C58.99023438 72.92069641 58.99023438 73.58069641 58.99023438 74.26069641 C57.87648438 74.60100891 57.87648438 74.60100891 56.74023438 74.94819641 C53.34437516 76.32379415 53.34437516 76.32379415 49.99023438 81.26069641 C70.78023438 81.26069641 91.57023438 81.26069641 112.99023438 81.26069641 C112.99023438 64.43069641 112.99023438 47.60069641 112.99023438 30.26069641 C111.09240919 30.26069641 109.69556809 32.24370508 108.36523438 33.44819641 Z M-2.00976562 104.26069641 C-2.00976562 105.58069641 -2.00976562 106.90069641 -2.00976562 108.26069641 C5.58023437 108.26069641 13.17023437 108.26069641 20.99023438 108.26069641 C20.99023438 110.90069641 20.99023438 113.54069641 20.99023438 116.26069641 C16.70023438 116.26069641 12.41023438 116.26069641 7.99023438 116.26069641 C7.99023438 117.25069641 7.99023438 118.24069641 7.99023438 119.26069641 C10.96023437 119.26069641 13.93023437 119.26069641 16.99023438 119.26069641 C16.99023438 121.90069641 16.99023438 124.54069641 16.99023438 127.26069641 C14.02023438 127.26069641 11.05023438 127.26069641 7.99023438 127.26069641 C7.99023438 128.25069641 7.99023438 129.24069641 7.99023438 130.26069641 C12.28023437 130.26069641 16.57023437 130.26069641 20.99023438 130.26069641 C20.99023438 132.90069641 20.99023438 135.54069641 20.99023438 138.26069641 C22.31023438 138.26069641 23.63023438 138.26069641 24.99023438 138.26069641 C24.99023438 128.36069641 24.99023438 118.46069641 24.99023438 108.26069641 C33.99023438 109.26069641 33.99023438 109.26069641 36.58398438 111.76460266 C37.21304688 112.7739386 37.84210937 113.78327454 38.49023438 114.82319641 C39.65479704 116.63704898 40.8208537 118.44994623 41.99023438 120.26069641 C42.32023437 120.26069641 42.65023437 120.26069641 42.99023438 120.26069641 C42.99023438 116.30069641 42.99023438 112.34069641 42.99023438 108.26069641 C46.29023437 108.26069641 49.59023437 108.26069641 52.99023438 108.26069641 C52.99023438 118.16069641 52.99023438 128.06069641 52.99023438 138.26069641 C57.28023437 138.26069641 61.57023437 138.26069641 65.99023438 138.26069641 C64.45923155 132.97873666 62.85177285 127.78808408 60.92773438 122.63569641 C59.28710247 118.21667638 58.03071664 113.85615974 56.99023438 109.26069641 C59.96023437 109.26069641 62.93023437 109.26069641 65.99023438 109.26069641 C67.31023437 113.22069641 68.63023438 117.18069641 69.99023438 121.26069641 C73.15644327 118.09448751 73.47090529 117.25979947 74.17773438 113.07319641 C74.44585937 111.48507141 74.71398437 109.89694641 74.99023438 108.26069641 C78.29023437 108.26069641 81.59023437 108.26069641 84.99023438 108.26069641 C84.05727588 111.28299885 83.11902832 114.30348984 82.17773438 117.32319641 C81.78618164 118.5945343 81.78618164 118.5945343 81.38671875 119.89155579 C80.1855365 123.73237311 78.9564008 127.46520141 77.29101562 131.13179016 C75.73431533 134.31153168 75.73431533 134.31153168 75.99023438 138.26069641 C82.26023437 138.26069641 88.53023438 138.26069641 94.99023438 138.26069641 C95.87944237 126.82802217 93.44060901 120.95896494 87.99023438 111.26069641 C87.49523437 109.77569641 87.49523437 109.77569641 86.99023438 108.26069641 C89.96023437 108.59069641 92.93023437 108.92069641 95.99023438 109.26069641 C96.98023437 111.57069641 97.97023438 113.88069641 98.99023438 116.26069641 C101.88955794 113.86560303 102.49191714 111.94824398 102.99023438 108.26069641 C106.29023438 108.26069641 109.59023437 108.26069641 112.99023438 108.26069641 C112.99023438 106.94069641 112.99023438 105.62069641 112.99023438 104.26069641 C75.04023437 104.26069641 37.09023437 104.26069641 -2.00976562 104.26069641 Z M111.99023438 110.26069641 C106.23227793 119.92583759 103.89338617 126.80472632 104.99023438 138.26069641 C107.63023437 138.26069641 110.27023438 138.26069641 112.99023438 138.26069641 C112.99023438 129.02069641 112.99023438 119.78069641 112.99023438 110.26069641 C112.66023438 110.26069641 112.33023438 110.26069641 111.99023438 110.26069641 Z M34.99023438 126.26069641 C34.99023438 130.22069641 34.99023438 134.18069641 34.99023438 138.26069641 C37.63023438 138.26069641 40.27023438 138.26069641 42.99023438 138.26069641 C42.66023438 136.94069641 42.33023438 135.62069641 41.99023438 134.26069641 C41.33023438 134.26069641 40.67023438 134.26069641 39.99023438 134.26069641 C39.72210938 133.49757141 39.45398437 132.73444641 39.17773438 131.94819641 C38.05071342 128.96018136 38.05071342 128.96018136 34.99023438 126.26069641 Z " fill="#8D8D8D" transform="translate(24.009765625,13.739303588867188)"/>
<path d="M0 0 C0.33 0.99 0.66 1.98 1 3 C0 4 0 4 -2.5625 4.0625 C-3.7690625 4.0315625 -3.7690625 4.0315625 -5 4 C-5 4.66 -5 5.32 -5 6 C7.87 6 20.74 6 34 6 C33 23 33 23 32 28 C19.79 28 7.58 28 -5 28 C-4.67 44.83 -4.34 61.66 -4 79 C-1.36 76.69 1.28 74.38 4 72 C5.65948148 70.98812105 7.32580562 69.9873454 9 69 C10.85234062 67.43885703 12.65875731 65.83869345 14.44921875 64.20703125 C16 63 16 63 18 63 C18 62.34 18 61.68 18 61 C21.56882027 57.82771531 25.53369558 56.48876814 30 55 C32 57 32 57 32 59 C32.66 59.66 33.32 60.32 34 61 C34.10470753 64.08943916 34.08854402 67.08073522 33.9765625 70.1640625 C33.93902359 71.52487442 33.93902359 71.52487442 33.90072632 72.91317749 C33.81839936 75.81749134 33.72185934 78.72113795 33.625 81.625 C33.56677339 83.59111837 33.50946985 85.55726431 33.453125 87.5234375 C33.31280169 92.34934373 33.15972802 97.17469862 33 102 C29.30459598 103.23180134 25.89696622 103.12412112 22.05078125 103.09765625 C21.27816452 103.0962413 20.50554779 103.09482635 19.70951843 103.09336853 C17.24380611 103.08777466 14.77818485 103.07522333 12.3125 103.0625 C10.63997527 103.05748421 8.96744912 103.05292144 7.29492188 103.04882812 C3.19657954 103.03780724 -0.90169479 103.02054684 -5 103 C-5 104.32 -5 105.64 -5 107 C2.59 107 10.18 107 18 107 C18 109.64 18 112.28 18 115 C13.71 115 9.42 115 5 115 C5 115.99 5 116.98 5 118 C7.97 118 10.94 118 14 118 C14 120.64 14 123.28 14 126 C11.03 126 8.06 126 5 126 C5 126.99 5 127.98 5 129 C9.29 129 13.58 129 18 129 C18.33 131.31 18.66 133.62 19 136 C19.99 136.33 20.98 136.66 22 137 C22 127.1 22 117.2 22 107 C31 107 31 107 33.3125 109.125 C33.869375 110.07375 34.42625 111.0225 35 112 C35.74459808 113.10781665 36.49457555 114.2120374 37.25 115.3125 C38.11625 116.6428125 38.11625 116.6428125 39 118 C39.33 114.37 39.66 110.74 40 107 C43.3 107 46.6 107 50 107 C50 116.9 50 126.8 50 137 C54.29 137 58.58 137 63 137 C62.44570312 135.576875 61.89140625 134.15375 61.3203125 132.6875 C60.58829484 130.79176196 59.85653781 128.89592326 59.125 127 C58.57779297 125.59814453 58.57779297 125.59814453 58.01953125 124.16796875 C55.96656583 118.83025865 54.13050476 113.61354088 53 108 C54 107 54 107 56.06640625 106.90234375 C59.53320312 106.95117188 59.53320312 106.95117188 63 107 C64.65 110.96 66.3 114.92 68 119 C69.32 115.04 70.64 111.08 72 107 C75.3 107 78.6 107 82 107 C81.0530972 117.41593075 76.59286895 127.2623788 73 137 C73.60996826 136.97905273 74.21993652 136.95810547 74.84838867 136.93652344 C77.62792294 136.85307139 80.4071932 136.80124989 83.1875 136.75 C84.14720703 136.71648437 85.10691406 136.68296875 86.09570312 136.6484375 C87.02705078 136.63554687 87.95839844 136.62265625 88.91796875 136.609375 C89.77156982 136.58842773 90.6251709 136.56748047 91.50463867 136.54589844 C94 137 94 137 99 141 C63.03 141 27.06 141 -10 141 C-10.1209091 106.51403705 -10.1209091 106.51403705 -10.14648438 92.09179688 C-10.16430347 82.12324406 -10.18528088 72.15476717 -10.22631836 62.1862793 C-10.25618807 54.9271234 -10.27556722 47.66802894 -10.28226548 40.4088133 C-10.28618189 36.56387403 -10.29540797 32.71911054 -10.31719017 28.87422752 C-10.33751711 25.25699346 -10.34384158 21.64000799 -10.33932304 18.02272224 C-10.34054493 16.0587561 -10.3567069 14.09481717 -10.3732605 12.13092041 C-10.36913651 10.96564316 -10.36501251 9.80036591 -10.36076355 8.59977722 C-10.36352893 7.58488315 -10.36629431 6.56998907 -10.36914349 5.52434063 C-10 3 -10 3 -8.70792103 1.16173267 C-5.9520286 -0.71283308 -3.2242781 -0.18250631 0 0 Z M32 125 C32 128.96 32 132.92 32 137 C34.64 137 37.28 137 40 137 C39.67 135.68 39.34 134.36 39 133 C38.34 133 37.68 133 37 133 C36.731875 132.236875 36.46375 131.47375 36.1875 130.6875 C35.06047905 127.69948494 35.06047905 127.69948494 32 125 Z " fill="#9E9E9E" transform="translate(27,15)"/>
<path d="M0 0 C1.32 0.66 2.64 1.32 4 2 C4 2.66 4 3.32 4 4 C4.66 4.66 5.32 5.32 6 6 C6.10470753 9.08943916 6.08854402 12.08073522 5.9765625 15.1640625 C5.93902359 16.52487442 5.93902359 16.52487442 5.90072632 17.91317749 C5.81839936 20.81749134 5.72185934 23.72113795 5.625 26.625 C5.56677339 28.59111837 5.50946985 30.55726431 5.453125 32.5234375 C5.31280169 37.34934373 5.15972802 42.17469862 5 47 C1.31087761 48.22970746 -2.09747108 48.14529971 -5.9375 48.125 C-6.98260742 48.13080078 -6.98260742 48.13080078 -8.04882812 48.13671875 C-14.39716039 48.12527 -20.68192427 47.58719916 -27 47 C-27.17421117 42.91720499 -27.28082588 38.83536319 -27.375 34.75 C-27.42527344 33.59113281 -27.47554687 32.43226562 -27.52734375 31.23828125 C-27.58258742 28.05256301 -27.57570014 25.13503775 -27 22 C-24.0703125 19.35546875 -24.0703125 19.35546875 -21 18 C-19.98133771 16.34467377 -18.98189187 14.67739862 -18 13 C-12.95901639 8 -12.95901639 8 -10 8 C-10 7.34 -10 6.68 -10 6 C-7.24165575 3.54813844 -4.42548265 2.29612857 -1 1 C-0.67 0.67 -0.34 0.34 0 0 Z " fill="#F0F0F0" transform="translate(55,70)"/>
<path d="M0 0 C11.55 0 23.1 0 35 0 C35.1546875 5.259375 35.1546875 5.259375 35.3125 10.625 C35.35802002 11.71893066 35.40354004 12.81286133 35.45043945 13.93994141 C35.56520841 22.01227173 35.56520841 22.01227173 32.7734375 25.46875 C30.33337873 27.69573321 27.93721718 29.86969825 25.3125 31.875 C24.54550781 32.47054687 23.77851562 33.06609375 22.98828125 33.6796875 C21 35 21 35 19 35 C19 35.66 19 36.32 19 37 C16.36107824 38.78305524 14.02821137 39.99059621 11 41 C11 41.66 11 42.32 11 43 C7.33694766 43.74926071 4.57644848 44.2380014 1 43 C1 40 1 40 3 38 C3.16283347 35.51363643 3.2075639 33.14024788 3.16015625 30.65625 C3.15495468 29.93135376 3.14975311 29.20645752 3.14439392 28.45959473 C3.12655422 26.13952777 3.09538083 23.81989882 3.0625 21.5 C3.03489981 19.18014362 3.01018657 16.86034951 2.99131775 14.54040527 C2.97904496 13.09576802 2.96142602 11.65116454 2.93800354 10.20666504 C2.88824714 5.22350572 2.88824714 5.22350572 4 3 C2.68 2.67 1.36 2.34 0 2 C0 1.34 0 0.68 0 0 Z " fill="#EAEAEA" transform="translate(102,21)"/>
<path d="M0 0 C2.11420152 0.00186789 4.22840348 0.00329004 6.34260559 0.00428772 C11.87449362 0.00808372 17.40635488 0.01788873 22.93823242 0.0289917 C28.59618773 0.0392689 34.2541474 0.04379879 39.91210938 0.04882812 C50.98959501 0.05951393 62.0670609 0.07655485 73.14453125 0.09765625 C73.63953125 2.07765625 73.63953125 2.07765625 74.14453125 4.09765625 C74.80453125 4.09765625 75.46453125 4.09765625 76.14453125 4.09765625 C76.16766265 17.10149191 76.18545043 30.10532271 76.19634342 43.10917473 C76.20157049 49.14684651 76.20866498 55.18450426 76.2199707 61.22216797 C76.23080579 67.04468042 76.23680941 72.86717933 76.23940849 78.68970108 C76.24126162 80.91533751 76.24488008 83.14097316 76.25026131 85.36660385 C76.25747995 88.47472507 76.25852184 91.58278977 76.25805664 94.69091797 C76.26165192 95.61880127 76.26524719 96.54668457 76.26895142 97.50268555 C76.26757675 98.34685028 76.26620209 99.19101501 76.26478577 100.0607605 C76.26570756 100.7963513 76.26662935 101.5319421 76.26757908 102.28982353 C76.14453125 104.09765625 76.14453125 104.09765625 75.14453125 106.09765625 C73.65953125 105.60265625 73.65953125 105.60265625 72.14453125 105.09765625 C72.14453125 72.09765625 72.14453125 39.09765625 72.14453125 5.09765625 C67.68953125 5.59265625 67.68953125 5.59265625 63.14453125 6.09765625 C61.57016721 6.17197329 59.9938251 6.21998734 58.41770935 6.21791077 C57.59757858 6.21928543 56.77744781 6.2206601 55.9324646 6.22207642 C55.06715118 6.21848114 54.20183777 6.21488586 53.31030273 6.21118164 C52.37264572 6.21132767 51.43498871 6.21147369 50.46891785 6.21162415 C47.40112919 6.21093316 44.33340292 6.20317924 41.265625 6.1953125 C39.12614475 6.19344542 36.98666406 6.19202289 34.84718323 6.19102478 C29.23964235 6.18722241 23.63212773 6.17741176 18.02459717 6.1663208 C12.29309443 6.15605749 6.56158742 6.15151665 0.83007812 6.14648438 C-10.39844898 6.1357873 -21.62695667 6.11873848 -32.85546875 6.09765625 C-33.18546875 5.10765625 -33.51546875 4.11765625 -33.85546875 3.09765625 C-33.52546875 2.43765625 -33.19546875 1.77765625 -32.85546875 1.09765625 C-22.52823142 -1.34575715 -10.55293849 -0.02749506 0 0 Z " fill="#9FA0A0" transform="translate(65.85546875,13.90234375)"/>
<path d="M0 0 C9 0 9 0 11.3125 2.125 C11.869375 3.07375 12.42625 4.0225 13 5 C13.74459808 6.10781665 14.49457555 7.2120374 15.25 8.3125 C15.8275 9.199375 16.405 10.08625 17 11 C17.33 7.37 17.66 3.74 18 0 C21.3 0 24.6 0 28 0 C28 9.9 28 19.8 28 30 C28.99 30.33 29.98 30.66 31 31 C11.86 31 -7.28 31 -27 31 C-27 30.34 -27 29.68 -27 29 C-19.74 29 -12.48 29 -5 29 C-5 27.35 -5 25.7 -5 24 C-4.731875 24.61875 -4.46375 25.2375 -4.1875 25.875 C-3.04443152 28.2995233 -3.04443152 28.2995233 0 30 C0 20.1 0 10.2 0 0 Z M10 18 C10 21.96 10 25.92 10 30 C12.64 30 15.28 30 18 30 C17.67 28.68 17.34 27.36 17 26 C16.34 26 15.68 26 15 26 C14.731875 25.236875 14.46375 24.47375 14.1875 23.6875 C13.06047905 20.69948494 13.06047905 20.69948494 10 18 Z " fill="#6E6E6E" transform="translate(49,122)"/>
<path d="M0 0 C16.335 0.495 16.335 0.495 33 1 C33 8.26 33 15.52 33 23 C22.11 23 11.22 23 0 23 C0.5 14.625 0.5 14.625 0.65820312 11.99072266 C0.90804506 7.99813196 0.90804506 7.99813196 1 4 C0.34 3.67 -0.32 3.34 -1 3 C-0.67 2.01 -0.34 1.02 0 0 Z " fill="#DFDFDF" transform="translate(104,95)"/>
<path d="M0 0 C1.25683594 0.00322266 2.51367188 0.00644531 3.80859375 0.00976562 C5.12730469 0.01814453 6.44601563 0.02652344 7.8046875 0.03515625 C9.14452961 0.04017136 10.4843735 0.04473424 11.82421875 0.04882812 C15.10941956 0.06064539 18.39453147 0.07712008 21.6796875 0.09765625 C21.53824918 2.82711485 21.39169221 5.55613748 21.2421875 8.28515625 C21.20287109 9.05408203 21.16355469 9.82300781 21.12304688 10.61523438 C21.08115234 11.36611328 21.03925781 12.11699219 20.99609375 12.890625 C20.95943604 13.57664795 20.92277832 14.2626709 20.88500977 14.96948242 C20.6535925 17.368132 20.15228563 19.73466561 19.6796875 22.09765625 C10.1096875 22.09765625 0.5396875 22.09765625 -9.3203125 22.09765625 C-11.82960717 17.0790669 -10.85450903 9.23625338 -9.4453125 3.91015625 C-7.52351226 -0.89434434 -4.75384055 -0.0214137 0 0 Z " fill="#F2F2F2" transform="translate(39.3203125,20.90234375)"/>
<path d="M0 0 C0.9583374 0.00523682 1.9166748 0.01047363 2.90405273 0.01586914 C4.45576172 0.02070312 4.45576172 0.02070312 6.03881836 0.02563477 C7.12743164 0.03401367 8.21604492 0.04239258 9.33764648 0.05102539 C10.97636719 0.05779297 10.97636719 0.05779297 12.64819336 0.06469727 C15.35723144 0.07652713 18.06616248 0.09300996 20.77514648 0.11352539 C20.77514648 2.42352539 20.77514648 4.73352539 20.77514648 7.11352539 C16.48514648 7.11352539 12.19514648 7.11352539 7.77514648 7.11352539 C7.77514648 8.10352539 7.77514648 9.09352539 7.77514648 10.11352539 C10.74514648 10.11352539 13.71514648 10.11352539 16.77514648 10.11352539 C16.77514648 12.75352539 16.77514648 15.39352539 16.77514648 18.11352539 C13.80514648 18.11352539 10.83514648 18.11352539 7.77514648 18.11352539 C7.77514648 19.10352539 7.77514648 20.09352539 7.77514648 21.11352539 C12.06514648 21.11352539 16.35514648 21.11352539 20.77514648 21.11352539 C20.44514648 23.42352539 20.11514648 25.73352539 19.77514648 28.11352539 C12.18514648 28.11352539 4.59514648 28.11352539 -3.22485352 28.11352539 C-4.81952366 24.9241851 -4.36770469 21.48735521 -4.34985352 17.98852539 C-4.3537207 17.25375977 -4.35758789 16.51899414 -4.36157227 15.76196289 C-4.33421169 0.22115752 -4.33421169 0.22115752 0 0 Z " fill="#CDCDCD" transform="translate(24.224853515625,122.886474609375)"/>
<path d="M0 0 C3.46679688 0.04882812 3.46679688 0.04882812 6.93359375 0.09765625 C8.58359375 4.05765625 10.23359375 8.01765625 11.93359375 12.09765625 C13.25359375 8.13765625 14.57359375 4.17765625 15.93359375 0.09765625 C19.23359375 0.09765625 22.53359375 0.09765625 25.93359375 0.09765625 C24.98709236 10.50917151 20.53458072 20.36732975 16.93359375 30.09765625 C18.58359375 30.09765625 20.23359375 30.09765625 21.93359375 30.09765625 C21.93359375 30.42765625 21.93359375 30.75765625 21.93359375 31.09765625 C14.67359375 31.09765625 7.41359375 31.09765625 -0.06640625 31.09765625 C-0.06640625 30.76765625 -0.06640625 30.43765625 -0.06640625 30.09765625 C2.24359375 30.09765625 4.55359375 30.09765625 6.93359375 30.09765625 C6.70172363 29.50339844 6.46985352 28.90914062 6.23095703 28.296875 C5.16853972 25.56570326 4.11352868 22.83172636 3.05859375 20.09765625 C2.69378906 19.16308594 2.32898438 18.22851562 1.953125 17.265625 C-0.09984042 11.9279149 -1.93590149 6.71119713 -3.06640625 1.09765625 C-2.06640625 0.09765625 -2.06640625 0.09765625 0 0 Z " fill="#898989" transform="translate(83.06640625,121.90234375)"/>
<path d="M0 0 C1.32 0.66 2.64 1.32 4 2 C4 2.66 4 3.32 4 4 C4.66 4.66 5.32 5.32 6 6 C6.10470753 9.08943916 6.08854402 12.08073522 5.9765625 15.1640625 C5.95153656 16.07127045 5.92651062 16.97847839 5.90072632 17.91317749 C5.81839936 20.81749134 5.72185934 23.72113795 5.625 26.625 C5.56677339 28.59111837 5.50946985 30.55726431 5.453125 32.5234375 C5.31280169 37.34934373 5.15972802 42.17469862 5 47 C1.23699626 48.25433458 -2.27210909 48.10695422 -6.1875 48.0625 C-6.93708984 48.05798828 -7.68667969 48.05347656 -8.45898438 48.04882812 C-10.30602383 48.03706354 -12.15302213 48.01912865 -14 48 C-14 47.67 -14 47.34 -14 47 C-11.03 47 -8.06 47 -5 47 C-5 34.46 -5 21.92 -5 9 C-7.64 9.33 -10.28 9.66 -13 10 C-12.67 9.34 -12.34 8.68 -12 8 C-11.34 8 -10.68 8 -10 8 C-10 7.34 -10 6.68 -10 6 C-7.24165575 3.54813844 -4.42548265 2.29612857 -1 1 C-0.67 0.67 -0.34 0.34 0 0 Z " fill="#BBBBBB" transform="translate(55,70)"/>
<path d="M0 0 C56.375 0 56.375 0 60 2 C60 3.65 60 5.3 60 7 C62.64 7 65.28 7 68 7 C68 7.66 68 8.32 68 9 C66.7625 9.020625 65.525 9.04125 64.25 9.0625 C63.55390625 9.07410156 62.8578125 9.08570313 62.140625 9.09765625 C60 9 60 9 58.30078125 8.5 C55.18551068 7.82299723 52.23391977 7.88883932 49.046875 7.90234375 C48.38665344 7.9037587 47.72643188 7.90517365 47.04620361 7.90663147 C44.94742206 7.91220755 42.84874905 7.92475553 40.75 7.9375 C39.32291821 7.9425181 37.89583475 7.94708046 36.46875 7.95117188 C32.97913168 7.96216912 29.48957644 7.9794172 26 8 C25.67 7.01 25.34 6.02 25 5 C24.34 4.67 23.68 4.34 23 4 C23 5.32 23 6.64 23 8 C22.360625 7.814375 21.72125 7.62875 21.0625 7.4375 C20.0415625 7.2209375 20.0415625 7.2209375 19 7 C18.67 7.33 18.34 7.66 18 8 C16.65732587 8.08631874 15.31025678 8.10706473 13.96484375 8.09765625 C13.15595703 8.09443359 12.34707031 8.09121094 11.51367188 8.08789062 C10.66353516 8.07951172 9.81339844 8.07113281 8.9375 8.0625 C8.08349609 8.05798828 7.22949219 8.05347656 6.34960938 8.04882812 C4.23304337 8.03700373 2.11651315 8.01906769 0 8 C0 5.36 0 2.72 0 0 Z M42 3 C43 5 43 5 43 5 Z M49 3 C50 5 50 5 50 5 Z M53 3 C54 5 54 5 54 5 Z " fill="#AEAFB0" transform="translate(23,159)"/>
<path d="M0 0 C1.98 0.495 1.98 0.495 4 1 C4 1.66 4 2.32 4 3 C4.66 3 5.32 3 6 3 C6.0231314 16.00383566 6.04091918 29.00766646 6.05181217 42.01151848 C6.05703924 48.04919026 6.06413373 54.08684801 6.07543945 60.12451172 C6.08627454 65.94702417 6.09227816 71.76952308 6.09487724 77.59204483 C6.09673037 79.81768126 6.10034883 82.04331691 6.10573006 84.2689476 C6.1129487 87.37706882 6.11399059 90.48513352 6.11352539 93.59326172 C6.11712067 94.52114502 6.12071594 95.44902832 6.12442017 96.4050293 C6.1230455 97.24919403 6.12167084 98.09335876 6.12025452 98.96310425 C6.12117631 99.69869505 6.1220981 100.43428585 6.12304783 101.19216728 C6 103 6 103 5 105 C4.01 104.67 3.02 104.34 2 104 C2 71 2 38 2 4 C1.01 4 0.02 4 -1 4 C-0.67 2.68 -0.34 1.36 0 0 Z " fill="#AFAFAF" transform="translate(136,15)"/>
<path d="M0 0 C1.11503906 0.00644531 2.23007812 0.01289063 3.37890625 0.01953125 C4.53777344 0.03628906 5.69664063 0.05304687 6.890625 0.0703125 C8.65212891 0.08384766 8.65212891 0.08384766 10.44921875 0.09765625 C13.34656036 0.12121187 16.24348941 0.15410598 19.140625 0.1953125 C19.140625 0.5253125 19.140625 0.8553125 19.140625 1.1953125 C15.840625 1.5253125 12.540625 1.8553125 9.140625 2.1953125 C8.810625 3.5153125 8.480625 4.8353125 8.140625 6.1953125 C9.81705078 5.95132469 9.81705078 5.95132469 11.52734375 5.70240784 C16.34693624 5.1035607 21.10195205 5.06195062 25.953125 5.08178711 C26.91557129 5.08166657 27.87801758 5.08154604 28.86962891 5.08142185 C31.95998512 5.0821634 35.05027969 5.08975687 38.140625 5.09765625 C40.05859346 5.09912802 41.97656231 5.10014728 43.89453125 5.10070801 C50.97656866 5.10593367 58.05859745 5.11989493 65.140625 5.1328125 C88.900625 5.16375 88.900625 5.16375 113.140625 5.1953125 C113.140625 49.4153125 113.140625 93.6353125 113.140625 139.1953125 C110.500625 139.1953125 107.860625 139.1953125 105.140625 139.1953125 C105.140625 138.8653125 105.140625 138.5353125 105.140625 138.1953125 C107.450625 138.1953125 109.760625 138.1953125 112.140625 138.1953125 C112.00167543 134.11171434 111.85327562 130.02851294 111.703125 125.9453125 C111.66380859 124.78644531 111.62449219 123.62757813 111.58398438 122.43359375 C111.54208984 121.31855469 111.50019531 120.20351562 111.45703125 119.0546875 C111.42037354 118.02827148 111.38371582 117.00185547 111.34594727 115.94433594 C111.16780372 113.55920363 110.81285137 111.48231751 110.140625 109.1953125 C107.500625 109.5253125 104.860625 109.8553125 102.140625 110.1953125 C102.140625 109.5353125 102.140625 108.8753125 102.140625 108.1953125 C105.440625 108.1953125 108.740625 108.1953125 112.140625 108.1953125 C112.140625 99.6153125 112.140625 91.0353125 112.140625 82.1953125 C102.240625 82.1953125 92.340625 82.1953125 82.140625 82.1953125 C82.140625 81.8653125 82.140625 81.5353125 82.140625 81.1953125 C92.040625 81.1953125 101.940625 81.1953125 112.140625 81.1953125 C112.05683594 77.69679688 111.97304687 74.19828125 111.88671875 70.59375 C111.8088441 67.12487341 111.73353148 63.65594971 111.65844727 60.18701172 C111.6057725 57.81520627 111.55052371 55.44345629 111.49243164 53.07177734 C111.40838844 49.62089034 111.3342746 46.16989563 111.26171875 42.71875 C111.23468369 41.69486176 111.20764862 40.67097351 111.17979431 39.61605835 C110.9693673 28.73237868 111.64241949 18.15583375 112.140625 7.1953125 C74.190625 7.1953125 36.240625 7.1953125 -2.859375 7.1953125 C-2.859375 6.5353125 -2.859375 5.8753125 -2.859375 5.1953125 C-1.209375 4.8653125 0.440625 4.5353125 2.140625 4.1953125 C2.140625 3.2053125 2.140625 2.2153125 2.140625 1.1953125 C-2.89415941 1.42945224 -2.89415941 1.42945224 -6.796875 4.2578125 C-7.1475 4.8971875 -7.498125 5.5365625 -7.859375 6.1953125 C-8.849375 5.8653125 -9.839375 5.5353125 -10.859375 5.1953125 C-9.859375 2.1953125 -9.859375 2.1953125 -8.16308594 1.02001953 C-5.32000282 0.00222229 -3.01896552 -0.03080577 0 0 Z " fill="#3A3B3A" transform="translate(24.859375,13.8046875)"/>
<path d="M0 0 C9 0 9 0 11.25 1.9375 C11.8275 2.948125 12.405 3.95875 13 5 C13.4434375 5.70125 13.886875 6.4025 14.34375 7.125 C16.95593026 11.42058532 18.98489759 14.82928763 18 20 C16.5 21.875 16.5 21.875 15 23 C15 21.02 15 19.04 15 17 C13.68 17.33 12.36 17.66 11 18 C10.67 17.34 10.34 16.68 10 16 C9.67 20.29 9.34 24.58 9 29 C6.03 29 3.06 29 0 29 C0 19.43 0 9.86 0 0 Z " fill="#ADADAD" transform="translate(49,122)"/>
<path d="M0 0 C0.33 0.99 0.66 1.98 1 3 C0 4 0 4 -2.5625 4.0625 C-3.7690625 4.0315625 -3.7690625 4.0315625 -5 4 C-5 4.66 -5 5.32 -5 6 C-1.37 6 2.26 6 6 6 C5.01 6.495 5.01 6.495 4 7 C2.40508567 13.85813161 2.91265791 21.00292842 3 28 C-0.63 28.33 -4.26 28.66 -8 29 C-8.33 32.3 -8.66 35.6 -9 39 C-9.33 39 -9.66 39 -10 39 C-10.07413521 33.92801112 -10.12859451 28.85633732 -10.16479492 23.78393555 C-10.17988516 22.05829373 -10.20035975 20.33269028 -10.22631836 18.60717773 C-10.26269209 16.12734512 -10.27972359 13.64801936 -10.29296875 11.16796875 C-10.30845261 10.39599655 -10.32393646 9.62402435 -10.33988953 8.82865906 C-10.34155584 3.53010762 -10.34155584 3.53010762 -8.7121582 1.0012207 C-5.91268441 -0.63583077 -3.15355196 -0.17850294 0 0 Z " fill="#A3A4A4" transform="translate(27,15)"/>
<path d="M0 0 C5.28 0 10.56 0 16 0 C16 6.93 16 13.86 16 21 C10.72 21 5.44 21 0 21 C0 14.07 0 7.14 0 0 Z " fill="#F7F7F7" transform="translate(112,96)"/>
<path d="M0 0 C0.8146875 0.01047363 1.629375 0.02094727 2.46875 0.03173828 C3.7990625 0.04140625 3.7990625 0.04140625 5.15625 0.05126953 C6.084375 0.06802734 7.0125 0.08478516 7.96875 0.10205078 C9.3609375 0.11558594 9.3609375 0.11558594 10.78125 0.12939453 C13.17728768 0.15377282 15.5728924 0.18961551 17.96875 0.22705078 C18.62875 0.22705078 19.28875 0.22705078 19.96875 0.22705078 C23.30208333 0.22705078 26.63541667 0.22705078 29.96875 0.22705078 C29.96875 1.54705078 29.96875 2.86705078 29.96875 4.22705078 C30.62875 2.90705078 31.28875 1.58705078 31.96875 0.22705078 C32.54625 0.41267578 33.12375 0.59830078 33.71875 0.78955078 C36.17567525 1.26728625 37.61272534 0.98434442 39.96875 0.22705078 C39.96875 1.87705078 39.96875 3.52705078 39.96875 5.22705078 C40.95875 5.22705078 41.94875 5.22705078 42.96875 5.22705078 C42.63875 6.21705078 42.30875 7.20705078 41.96875 8.22705078 C32.72875 8.22705078 23.48875 8.22705078 13.96875 8.22705078 C14.29875 6.57705078 14.62875 4.92705078 14.96875 3.22705078 C14.30875 3.22705078 13.64875 3.22705078 12.96875 3.22705078 C12.96875 3.88705078 12.96875 4.54705078 12.96875 5.22705078 C12.30875 5.22705078 11.64875 5.22705078 10.96875 5.22705078 C10.96875 6.21705078 10.96875 7.20705078 10.96875 8.22705078 C9.97875 8.22705078 8.98875 8.22705078 7.96875 8.22705078 C7.96875 7.23705078 7.96875 6.24705078 7.96875 5.22705078 C7.30875 5.22705078 6.64875 5.22705078 5.96875 5.22705078 C5.96875 6.21705078 5.96875 7.20705078 5.96875 8.22705078 C2.99875 8.22705078 0.02875 8.22705078 -3.03125 8.22705078 C-3.65625 5.35205078 -3.65625 5.35205078 -4.03125 2.22705078 C-2.03125 0.22705078 -2.03125 0.22705078 0 0 Z " fill="#C0C1C0" transform="translate(95.03125,158.77294921875)"/>
<path d="M0 0 C3.7922575 -0.05867815 7.58453318 -0.09978007 11.3770752 -0.13493347 C13.12394088 -0.15378075 14.87075067 -0.17892496 16.61743164 -0.21055603 C19.02345857 -0.25185685 21.42832178 -0.26769495 23.83465576 -0.27662659 C24.52793472 -0.29407928 25.22121368 -0.31153198 25.9355011 -0.32951355 C31.21344779 -0.30590969 31.75773741 0.49699498 36.32293701 4.14915466 C1.67293701 4.14915466 -32.97706299 4.14915466 -68.67706299 4.14915466 C-65.39248216 0.86457383 -65.15308039 0.77209199 -60.84649658 0.71678162 C-59.36150414 0.68712814 -59.36150414 0.68712814 -57.84651184 0.65687561 C-56.76707809 0.65046051 -55.68764435 0.64404541 -54.57550049 0.63743591 C-53.44655869 0.61925812 -52.31761688 0.60108032 -51.15446472 0.58235168 C-47.45369064 0.52695158 -43.75311047 0.49335917 -40.05206299 0.46165466 C-37.51193351 0.43156487 -34.97181289 0.40071773 -32.43170166 0.36912537 C-27.30276089 0.30864387 -22.17386161 0.25870126 -17.04473877 0.21653748 C-11.36261128 0.16867748 -5.68155228 0.09275764 0 0 Z " fill="#B1B1B1" transform="translate(89.67706298828125,151.85084533691406)"/>
<path d="M0 0 C2.97 0 5.94 0 9 0 C10.32 2.97 11.64 5.94 13 9 C14.65 8.01 16.3 7.02 18 6 C19.12612613 10.5045045 19.12612613 10.5045045 18.5625 12.71875 C17.78283278 15.88073373 17.64795866 19.0029236 17.4375 22.25 C17.35371094 23.51328125 17.26992187 24.7765625 17.18359375 26.078125 C17.09271484 27.52445313 17.09271484 27.52445313 17 29 C14.36 29 11.72 29 9 29 C8.98582031 28.13117188 8.97164062 27.26234375 8.95703125 26.3671875 C8.64900327 18.92456556 8.25046497 15.25046497 3 10 C1.18595247 6.72048663 0 3.79887685 0 0 Z " fill="#F0F0F0" transform="translate(111,122)"/>
<path d="M0 0 C3.96 0 7.92 0 12 0 C11.85856168 2.7294586 11.71200471 5.45848123 11.5625 8.1875 C11.50352539 9.34088867 11.50352539 9.34088867 11.44335938 10.51757812 C11.22492966 14.43251075 10.91307892 18.17120688 10 22 C7.03 22 4.06 22 1 22 C0.9729797 19.24993392 0.95315117 16.50013454 0.9375 13.75 C0.92912109 12.97269531 0.92074219 12.19539063 0.91210938 11.39453125 C0.90888672 10.64042969 0.90566406 9.88632812 0.90234375 9.109375 C0.89710693 8.41811523 0.89187012 7.72685547 0.88647461 7.01464844 C1.00562029 4.90026102 1.42381763 3.03358485 2 1 C1.34 0.67 0.68 0.34 0 0 Z " fill="#BABABA" transform="translate(49,21)"/>
<path d="M0 0 C0.33 0.66 0.66 1.32 1 2 C-1 4 -1 4 -3.11328125 5.70703125 C-5.67797564 8.82395797 -5.37587884 10.70525903 -5.1875 14.6875 C-5.01816014 20.27571524 -5.23695709 25.46793894 -6 31 C-2.04 31 1.92 31 6 31 C6 31.33 6 31.66 6 32 C0.39 32 -5.22 32 -11 32 C-13.18225322 27.63549357 -13.4010309 24.3075346 -13.4375 19.5625 C-13.47037109 18.81162109 -13.50324219 18.06074219 -13.53710938 17.28710938 C-13.57789648 13.07120543 -13.4160617 11.50408797 -10.63671875 8.13671875 C-9.76660156 7.43160156 -8.89648438 6.72648437 -8 6 C-6.700625 4.63875 -6.700625 4.63875 -5.375 3.25 C-3 1 -3 1 0 0 Z " fill="#C4C5C5" transform="translate(34,86)"/>
<path d="M0 0 C3.46679688 0.04882812 3.46679688 0.04882812 6.93359375 0.09765625 C8.58359375 4.05765625 10.23359375 8.01765625 11.93359375 12.09765625 C12.59359375 9.78765625 13.25359375 7.47765625 13.93359375 5.09765625 C14.26359375 5.09765625 14.59359375 5.09765625 14.93359375 5.09765625 C15.18359375 11.72265625 15.18359375 11.72265625 12.93359375 15.09765625 C11.94359375 15.09765625 10.95359375 15.09765625 9.93359375 15.09765625 C9.93359375 15.75765625 9.93359375 16.41765625 9.93359375 17.09765625 C9.27359375 17.42765625 8.61359375 17.75765625 7.93359375 18.09765625 C7.93359375 19.41765625 7.93359375 20.73765625 7.93359375 22.09765625 C6.93359375 24.09765625 6.93359375 24.09765625 4.93359375 25.09765625 C3.96958393 22.59971886 3.01231828 20.09951966 2.05859375 17.59765625 C1.78917969 16.9015625 1.51976563 16.20546875 1.2421875 15.48828125 C-0.55818656 10.7458325 -2.02201675 6.06675156 -3.06640625 1.09765625 C-2.06640625 0.09765625 -2.06640625 0.09765625 0 0 Z " fill="#747474" transform="translate(83.06640625,121.90234375)"/>
<path d="M0 0 C2.89360263 2.89360263 2.42150543 5.98905207 2.5625 9.875 C2.70457605 15.11430828 2.70457605 15.11430828 3.58984375 20.2578125 C4 22 4 22 3 26 C10.59 26 18.18 26 26 26 C26 26.33 26 26.66 26 27 C18.41 27.33 10.82 27.66 3 28 C2.1672761 34.21908804 2.1672761 34.21908804 1.8671875 40.359375 C1.86525391 41.44412109 1.86525391 41.44412109 1.86328125 42.55078125 C1.86714844 43.27652344 1.87101562 44.00226563 1.875 44.75 C1.87113281 45.49121094 1.86726563 46.23242188 1.86328125 46.99609375 C1.86952832 50.47571213 1.88031115 53.68969266 3 57 C3.66 57.33 4.32 57.66 5 58 C3.35 58.66 1.7 59.32 0 60 C-1.73067699 58.26932301 -1.12756529 55.93511196 -1.12939453 53.578125 C-1.13254669 52.42022461 -1.13569885 51.26232422 -1.13894653 50.06933594 C-1.1369223 48.80895508 -1.13489807 47.54857422 -1.1328125 46.25 C-1.13424759 44.32462402 -1.13424759 44.32462402 -1.13571167 42.36035156 C-1.13718831 39.63996176 -1.13503519 36.91960475 -1.13037109 34.19921875 C-1.12467381 30.70515331 -1.12795299 27.21116467 -1.13394356 23.71710205 C-1.13841754 20.39472847 -1.13528885 17.07237577 -1.1328125 13.75 C-1.13483673 12.48961914 -1.13686096 11.22923828 -1.13894653 9.93066406 C-1.13579437 8.77276367 -1.13264221 7.61486328 -1.12939453 6.421875 C-1.12820114 4.88418457 -1.12820114 4.88418457 -1.12698364 3.31542969 C-1 1 -1 1 0 0 Z " fill="#9FA0A2" transform="translate(19,96)"/>
<path d="M0 0 C3.3 0 6.6 0 10 0 C9.39297368 6.6772895 7.22368606 12.70127996 5 19 C2.125 19.125 2.125 19.125 -1 19 C-1.66 18.34 -2.32 17.68 -3 17 C-2.69140625 14.76953125 -2.69140625 14.76953125 -2 12 C-1.63851898 9.89707754 -1.28453644 7.79285439 -0.9375 5.6875 C-0.76089844 4.61886719 -0.58429688 3.55023438 -0.40234375 2.44921875 C-0.26957031 1.64097656 -0.13679688 0.83273438 0 0 Z " fill="#AFAFAF" transform="translate(99,122)"/>
<path d="M0 0 C2.97 0 5.94 0 9 0 C8.01 0.495 8.01 0.495 7 1 C5.40508567 7.85813161 5.91265791 15.00292842 6 22 C3.36 22 0.72 22 -2 22 C-2 15.4 -2 8.8 -2 2 C-1.34 2 -0.68 2 0 2 C0 1.34 0 0.68 0 0 Z " fill="#CCCCCC" transform="translate(24,21)"/>
<path d="M0 0 C8.58 0 17.16 0 26 0 C26 0.33 26 0.66 26 1 C23.36 1 20.72 1 18 1 C18.185625 1.598125 18.37125 2.19625 18.5625 2.8125 C19 5 19 5 18 8 C12.06 8 6.12 8 0 8 C0 5.36 0 2.72 0 0 Z " fill="#3F3F40" transform="translate(23,159)"/>
<path d="M0 0 C0.89110474 -0.00807175 1.78220947 -0.01614349 2.70031738 -0.02445984 C4.57965169 -0.03825306 6.45901054 -0.04899638 8.33837891 -0.05688477 C10.25870104 -0.0684412 12.17899014 -0.08895035 14.09912109 -0.1184082 C16.87880196 -0.16102966 19.65753322 -0.17724211 22.4375 -0.1875 C23.29283325 -0.20500809 24.1481665 -0.22251617 25.02941895 -0.24055481 C26.23592102 -0.23616646 26.23592102 -0.23616646 27.46679688 -0.23168945 C28.16897339 -0.23755569 28.8711499 -0.24342194 29.59460449 -0.24946594 C31.71875 0.23828125 31.71875 0.23828125 36.71875 4.23828125 C20.21875 4.23828125 3.71875 4.23828125 -13.28125 4.23828125 C-13.61125 3.24828125 -13.94125 2.25828125 -14.28125 1.23828125 C-9.53029173 0.03785474 -4.86831635 0.04204434 0 0 Z " fill="#B1B1B2" transform="translate(89.28125,151.76171875)"/>
<path d="M0 0 C1.32 0 2.64 0 4 0 C5 1 5 1 5.0625 3.5625 C5.041875 4.366875 5.02125 5.17125 5 6 C7.64 6 10.28 6 13 6 C13 6.66 13 7.32 13 8 C11.7625 8.020625 10.525 8.04125 9.25 8.0625 C8.55390625 8.07410156 7.8578125 8.08570313 7.140625 8.09765625 C5 8 5 8 3.24609375 7.5 C0.42451085 6.87189111 -2.18750423 6.88817404 -5.078125 6.90234375 C-6.81835938 6.90717773 -6.81835938 6.90717773 -8.59375 6.91210938 C-10.40359375 6.92467773 -10.40359375 6.92467773 -12.25 6.9375 C-14.08304688 6.94426758 -14.08304688 6.94426758 -15.953125 6.95117188 C-18.96879946 6.96295185 -21.98437498 6.97940147 -25 7 C-25.33 5.35 -25.66 3.7 -26 2 C-23.03 2.495 -23.03 2.495 -20 3 C-20 3.99 -20 4.98 -20 6 C-16.7 5.67 -13.4 5.34 -10 5 C-10 4.01 -10 3.02 -10 2 C-9.34 2 -8.68 2 -8 2 C-7.67 2.66 -7.34 3.32 -7 4 C-6.34 4 -5.68 4 -5 4 C-5 3.34 -5 2.68 -5 2 C-7.475 1.505 -7.475 1.505 -10 1 C-6.38436348 -1.36407003 -4.12252729 -0.85885985 0 0 Z M-2 2 C-1 4 -1 4 -1 4 Z " fill="#69696B" transform="translate(78,160)"/>
<path d="M0 0 C2.64 0 5.28 0 8 0 C8.14601614 3.54122827 8.2343056 7.08167644 8.3125 10.625 C8.3753418 12.12353516 8.3753418 12.12353516 8.43945312 13.65234375 C8.57762626 21.99800105 8.57762626 21.99800105 5.66796875 25.6484375 C3 28 3 28 0 29 C-0.33 27.68 -0.66 26.36 -1 25 C0.32 25.33 1.64 25.66 3 26 C3 17.75 3 9.5 3 1 C2.01 0.67 1.02 0.34 0 0 Z " fill="#C1C1C1" transform="translate(129,21)"/>
<path d="M0 0 C0.99 0 1.98 0 3 0 C3 9.24 3 18.48 3 28 C1.68 28 0.36 28 -1 28 C-2.59467014 24.81065971 -2.14285117 21.37382982 -2.125 17.875 C-2.12886719 17.14023438 -2.13273437 16.40546875 -2.13671875 15.6484375 C-2.11288856 2.11288856 -2.11288856 2.11288856 0 0 Z " fill="#C0C1C1" transform="translate(22,123)"/>
<path d="M0 0 C1.11503906 0.00644531 2.23007812 0.01289063 3.37890625 0.01953125 C4.53777344 0.03628906 5.69664063 0.05304687 6.890625 0.0703125 C8.65212891 0.08384766 8.65212891 0.08384766 10.44921875 0.09765625 C13.34656036 0.12121187 16.24348941 0.15410598 19.140625 0.1953125 C19.140625 0.5253125 19.140625 0.8553125 19.140625 1.1953125 C15.840625 1.5253125 12.540625 1.8553125 9.140625 2.1953125 C8.810625 3.5153125 8.480625 4.8353125 8.140625 6.1953125 C9.1821875 6.02128906 10.22375 5.84726562 11.296875 5.66796875 C17.41194871 4.90358454 23.50278754 5.33941038 29.640625 5.6328125 C30.84460937 5.68501953 32.04859375 5.73722656 33.2890625 5.79101562 C36.23990194 5.91982211 39.19032631 6.05474619 42.140625 6.1953125 C42.140625 6.5253125 42.140625 6.8553125 42.140625 7.1953125 C27.290625 7.1953125 12.440625 7.1953125 -2.859375 7.1953125 C-2.859375 6.5353125 -2.859375 5.8753125 -2.859375 5.1953125 C-1.209375 4.8653125 0.440625 4.5353125 2.140625 4.1953125 C2.140625 3.2053125 2.140625 2.2153125 2.140625 1.1953125 C-2.89415941 1.42945224 -2.89415941 1.42945224 -6.796875 4.2578125 C-7.1475 4.8971875 -7.498125 5.5365625 -7.859375 6.1953125 C-8.849375 5.8653125 -9.839375 5.5353125 -10.859375 5.1953125 C-9.859375 2.1953125 -9.859375 2.1953125 -8.16308594 1.02001953 C-5.32000282 0.00222229 -3.01896552 -0.03080577 0 0 Z " fill="#3F3F3F" transform="translate(24.859375,13.8046875)"/>
<path d="M0 0 C0.82741699 0.01047363 1.65483398 0.02094727 2.50732422 0.03173828 C3.40322266 0.03818359 4.29912109 0.04462891 5.22216797 0.05126953 C6.62789062 0.07640625 6.62789062 0.07640625 8.06201172 0.10205078 C9.00689453 0.11107422 9.95177734 0.12009766 10.92529297 0.12939453 C13.26278464 0.15300556 15.59977295 0.18593562 17.93701172 0.22705078 C16.61701172 0.55705078 15.29701172 0.88705078 13.93701172 1.22705078 C13.60701172 2.54705078 13.27701172 3.86705078 12.93701172 5.22705078 C12.27701172 5.22705078 11.61701172 5.22705078 10.93701172 5.22705078 C10.93701172 6.21705078 10.93701172 7.20705078 10.93701172 8.22705078 C9.94701172 8.22705078 8.95701172 8.22705078 7.93701172 8.22705078 C7.93701172 7.23705078 7.93701172 6.24705078 7.93701172 5.22705078 C7.27701172 5.22705078 6.61701172 5.22705078 5.93701172 5.22705078 C5.93701172 6.21705078 5.93701172 7.20705078 5.93701172 8.22705078 C2.96701172 8.22705078 -0.00298828 8.22705078 -3.06298828 8.22705078 C-3.68798828 5.35205078 -3.68798828 5.35205078 -4.06298828 2.22705078 C-2.06298828 0.22705078 -2.06298828 0.22705078 0 0 Z " fill="#393D3E" transform="translate(95.06298828125,158.77294921875)"/>
<path d="M0 0 C0.66 0 1.32 0 2 0 C1.67 13.86 1.34 27.72 1 42 C-0.485 42.495 -0.485 42.495 -2 43 C-2.0246519 38.17619198 -2.04283693 33.35242033 -2.05493164 28.52856445 C-2.05997174 26.88630536 -2.06680378 25.24405077 -2.07543945 23.60180664 C-2.08751926 21.24624521 -2.09323139 18.89074291 -2.09765625 16.53515625 C-2.10281754 15.79660904 -2.10797882 15.05806183 -2.11329651 14.2971344 C-2.1134925 12.53101912 -2.06194719 10.76502854 -2 9 C-1.67 8.67 -1.34 8.34 -1 8 C-0.76924918 6.65252916 -0.58846937 5.29622435 -0.4375 3.9375 C-0.293125 2.638125 -0.14875 1.33875 0 0 Z " fill="#D4D4D4" transform="translate(52,74)"/>
<path d="M0 0 C1.32 0 2.64 0 4 0 C4 7.26 4 14.52 4 22 C1.36 22 -1.28 22 -4 22 C-3.01 21.67 -2.02 21.34 -1 21 C-1.00523682 20.39937744 -1.01047363 19.79875488 -1.01586914 19.17993164 C-1.03658014 16.47413162 -1.04964125 13.76834823 -1.0625 11.0625 C-1.07087891 10.11697266 -1.07925781 9.17144531 -1.08789062 8.19726562 C-1.09111328 7.29814453 -1.09433594 6.39902344 -1.09765625 5.47265625 C-1.10289307 4.64000244 -1.10812988 3.80734863 -1.11352539 2.94946289 C-1 1 -1 1 0 0 Z " fill="#CDCDCD" transform="translate(133,96)"/>
<path d="M0 0 C1.32 0.33 2.64 0.66 4 1 C4.19670554 4.77041256 4.38078426 8.54133763 4.5625 12.3125 C4.61857422 13.38435547 4.67464844 14.45621094 4.73242188 15.56054688 C4.78076172 16.58857422 4.82910156 17.61660156 4.87890625 18.67578125 C4.9260376 19.62364502 4.97316895 20.57150879 5.02172852 21.5480957 C5 24 5 24 4 27 C2.68 27.33 1.36 27.66 0 28 C0 18.76 0 9.52 0 0 Z " fill="#D4D4D4" transform="translate(49,123)"/>
<path d="M0 0 C1.65 0.33 3.3 0.66 5 1 C5 8.26 5 15.52 5 23 C3.35 23 1.7 23 0 23 C0.0721875 21.79601562 0.144375 20.59203125 0.21875 19.3515625 C0.31253089 17.77604351 0.4062792 16.20052257 0.5 14.625 C0.54769531 13.8309375 0.59539062 13.036875 0.64453125 12.21875 C0.90355333 8.11223696 0.90355333 8.11223696 1 4 C0.34 3.67 -0.32 3.34 -1 3 C-0.67 2.01 -0.34 1.02 0 0 Z " fill="#CDCDCD" transform="translate(104,95)"/>
<path d="M0 0 C1.65 0 3.3 0 5 0 C4.67 0.66 4.34 1.32 4 2 C3.84621148 3.95774069 3.75028537 5.92017352 3.68359375 7.8828125 C3.64169922 9.04941406 3.59980469 10.21601563 3.55664062 11.41796875 C3.51732422 12.64128906 3.47800781 13.86460937 3.4375 15.125 C3.39431641 16.35605469 3.35113281 17.58710938 3.30664062 18.85546875 C3.20031296 21.90352853 3.09828219 24.9516719 3 28 C2.01 28 1.02 28 0 28 C0 18.76 0 9.52 0 0 Z " fill="#D1D1D1" transform="translate(25,123)"/>
<path d="M0 0 C1.093125 0.0825 2.18625 0.165 3.3125 0.25 C3.8622272 5.88470383 2.26297835 8.63987758 -0.6875 13.25 C-1.6775 12.92 -2.6675 12.59 -3.6875 12.25 C-3.3575 10.6 -3.0275 8.95 -2.6875 7.25 C-5.15028801 7.25 -6.53974119 8.10452863 -8.6875 9.25 C-5.48141892 0.37162162 -5.48141892 0.37162162 0 0 Z " fill="#BDBDBD" transform="translate(131.6875,122.75)"/>
<path d="M0 0 C0 2.49895205 -0.0848512 4.95535356 -0.21875 7.44921875 C-0.26386719 8.29677734 -0.30898438 9.14433594 -0.35546875 10.01757812 C-0.40316406 10.89865234 -0.45085938 11.77972656 -0.5 12.6875 C-0.54769531 13.58017578 -0.59539063 14.47285156 -0.64453125 15.39257812 C-0.76231269 17.59509104 -0.88082937 19.79756189 -1 22 C-2.32 22.33 -3.64 22.66 -5 23 C-5 16.73 -5 10.46 -5 4 C-4.01 4 -3.02 4 -2 4 C-2.33 3.01 -2.66 2.02 -3 1 C-2.01 0.67 -1.02 0.34 0 0 Z " fill="#B2B4B3" transform="translate(23,21)"/>
<path d="M0 0 C2.86724686 0.57344937 3.8614515 0.8614515 6 3 C6.33 3 6.66 3 7 3 C7 4.65 7 6.3 7 8 C6.01 8.33 5.02 8.66 4 9 C4 9.66 4 10.32 4 11 C0.33694766 11.74926071 -2.42355152 12.2380014 -6 11 C-6 10.01 -6 9.02 -6 8 C-4.35 7.67 -2.7 7.34 -1 7 C-0.67 4.69 -0.34 2.38 0 0 Z " fill="#DEDEDE" transform="translate(109,53)"/>
<path d="M0 0 C2.35036468 2.35036468 2.28738893 2.93991414 2.44921875 6.140625 C2.49240234 6.96433594 2.53558594 7.78804688 2.58007812 8.63671875 C2.61552734 9.49910156 2.65097656 10.36148438 2.6875 11.25 C2.75807617 12.52037109 2.75807617 12.52037109 2.83007812 13.81640625 C3.04610825 18.37074616 2.97549626 22.5112503 2 27 C1.67 26.34 1.34 25.68 1 25 C0.34 25 -0.32 25 -1 25 C-1.02886984 21.02084841 -1.04675406 17.04172347 -1.0625 13.0625 C-1.07087891 11.92619141 -1.07925781 10.78988281 -1.08789062 9.61914062 C-1.09111328 8.53955078 -1.09433594 7.45996094 -1.09765625 6.34765625 C-1.10289307 5.34742432 -1.10812988 4.34719238 -1.11352539 3.31665039 C-1 1 -1 1 0 0 Z " fill="#AFB2B1" transform="translate(19,96)"/>
<path d="M0 0 C0.90596924 0.01571045 1.81193848 0.0314209 2.74536133 0.04760742 C3.72827148 0.05727539 4.71118164 0.06694336 5.72387695 0.0769043 C6.74803711 0.10204102 7.77219727 0.12717773 8.82739258 0.15307617 C9.8631543 0.16661133 10.89891602 0.18014648 11.96606445 0.1940918 C14.52452957 0.22946228 17.08195038 0.27882073 19.63989258 0.34057617 C19.63989258 1.00057617 19.63989258 1.66057617 19.63989258 2.34057617 C20.95989258 2.67057617 22.27989258 3.00057617 23.63989258 3.34057617 C14.06989258 3.34057617 4.49989258 3.34057617 -5.36010742 3.34057617 C-2.36010742 0.34057617 -2.36010742 0.34057617 0 0 Z " fill="#C7C9C8" transform="translate(26.360107421875,152.659423828125)"/>
<path d="M0 0 C3.63 0 7.26 0 11 0 C11 1.98 11 3.96 11 6 C7.37 6 3.74 6 0 6 C0 4.02 0 2.04 0 0 Z " fill="#E1E2E3" transform="translate(29,160)"/>
<path d="M0 0 C1.485 0.99 1.485 0.99 3 2 C3.328125 4.50390625 3.328125 4.50390625 3.25 7.5625 C3.22421875 8.63113281 3.1984375 9.69976562 3.171875 10.80078125 C2.95149563 14.90284265 2.54289772 18.92826713 2 23 C1.01 23 0.02 23 -1 23 C-1.13292199 15.29052435 -0.61205763 7.6835092 0 0 Z " fill="#D3D3D3" transform="translate(26,94)"/>
<path d="M0 0 C1.32 0 2.64 0 4 0 C4 7.26 4 14.52 4 22 C3.01 22 2.02 22 1 22 C0.9729797 19.24993392 0.95315117 16.50013454 0.9375 13.75 C0.92912109 12.97269531 0.92074219 12.19539063 0.91210938 11.39453125 C0.90888672 10.64042969 0.90566406 9.88632812 0.90234375 9.109375 C0.89710693 8.41811523 0.89187012 7.72685547 0.88647461 7.01464844 C1.00562029 4.90026102 1.42381763 3.03358485 2 1 C1.34 0.67 0.68 0.34 0 0 Z " fill="#D3D3D3" transform="translate(49,21)"/>
<path d="M0 0 C1.11503906 0.00644531 2.23007812 0.01289063 3.37890625 0.01953125 C4.53777344 0.03628906 5.69664063 0.05304687 6.890625 0.0703125 C8.65212891 0.08384766 8.65212891 0.08384766 10.44921875 0.09765625 C13.34656036 0.12121187 16.24348941 0.15410598 19.140625 0.1953125 C19.140625 0.5253125 19.140625 0.8553125 19.140625 1.1953125 C15.840625 1.5253125 12.540625 1.8553125 9.140625 2.1953125 C8.810625 3.1853125 8.480625 4.1753125 8.140625 5.1953125 C6.160625 5.1953125 4.180625 5.1953125 2.140625 5.1953125 C2.140625 3.8753125 2.140625 2.5553125 2.140625 1.1953125 C-2.89415941 1.42945224 -2.89415941 1.42945224 -6.796875 4.2578125 C-7.1475 4.8971875 -7.498125 5.5365625 -7.859375 6.1953125 C-8.849375 5.8653125 -9.839375 5.5353125 -10.859375 5.1953125 C-9.859375 2.1953125 -9.859375 2.1953125 -8.16308594 1.02001953 C-5.32000282 0.00222229 -3.01896552 -0.03080577 0 0 Z " fill="#858585" transform="translate(24.859375,13.8046875)"/>
<path d="M0 0 C2.64 0 5.28 0 8 0 C7.01 0.495 7.01 0.495 6 1 C6.020625 1.969375 6.04125 2.93875 6.0625 3.9375 C6 7 6 7 5 8 C4.84126045 10.21687994 4.74866163 12.43855298 4.68359375 14.66015625 C4.66281265 15.32462265 4.64203156 15.98908905 4.62062073 16.6736908 C4.55506342 18.80318543 4.49621215 20.93280668 4.4375 23.0625 C4.39432061 24.50326847 4.35070651 25.94402399 4.30664062 27.38476562 C4.19937607 30.9230404 4.09812629 34.46145869 4 38 C3.67 38 3.34 38 3 38 C2.97531354 33.33691801 2.95714651 28.67387392 2.94506836 24.01074219 C2.94003412 22.42382139 2.93320631 20.83690523 2.92456055 19.25 C2.91245518 16.97134251 2.90676267 14.69274624 2.90234375 12.4140625 C2.89718246 11.70255035 2.89202118 10.99103821 2.88670349 10.25796509 C2.88612829 5.22774341 2.88612829 5.22774341 4 3 C2.68 2.67 1.36 2.34 0 2 C0 1.34 0 0.68 0 0 Z " fill="#C6C6C7" transform="translate(102,21)"/>
<path d="M0 0 C6.27 0 12.54 0 19 0 C18.01 0.33 17.02 0.66 16 1 C15.26676204 3.01508358 15.26676204 3.01508358 15 5 C8.6 6.23076923 8.6 6.23076923 5.5625 5.0625 C5.046875 4.711875 4.53125 4.36125 4 4 C4.99 4 5.98 4 7 4 C7 3.34 7 2.68 7 2 C4.69 1.67 2.38 1.34 0 1 C0 0.67 0 0.34 0 0 Z " fill="#878887" transform="translate(120,14)"/>
<path d="M0 0 C1.23556641 0.01740234 1.23556641 0.01740234 2.49609375 0.03515625 C3.32238281 0.04417969 4.14867187 0.05320313 5 0.0625 C5.63808594 0.07410156 6.27617188 0.08570313 6.93359375 0.09765625 C6.60359375 2.07765625 6.27359375 4.05765625 5.93359375 6.09765625 C4.67546875 6.11828125 3.41734375 6.13890625 2.12109375 6.16015625 C1.41339844 6.17175781 0.70570312 6.18335938 -0.0234375 6.1953125 C-2.06640625 6.09765625 -2.06640625 6.09765625 -5.06640625 5.09765625 C-2.6606399 0.12573913 -2.6606399 0.12573913 0 0 Z " fill="#F9F8F8" transform="translate(38.06640625,144.90234375)"/>
<path d="M0 0 C0.99 0 1.98 0 3 0 C3 1.65 3 3.3 3 5 C3.99 5 4.98 5 6 5 C5.67 5.99 5.34 6.98 5 8 C-0.61 8 -6.22 8 -12 8 C-12 7.67 -12 7.34 -12 7 C-6.555 6.505 -6.555 6.505 -1 6 C-1.33 5.01 -1.66 4.02 -2 3 C-1.34 2.01 -0.68 1.02 0 0 Z " fill="#414242" transform="translate(132,159)"/>
<path d="M0 0 C1.32 0.66 2.64 1.32 4 2 C4 3.65 4 5.3 4 7 C6.64 7 9.28 7 12 7 C12 7.66 12 8.32 12 9 C6.78020872 9.1799928 2.92737019 8.97094808 -2 7 C-1.125 1.125 -1.125 1.125 0 0 Z " fill="#606061" transform="translate(79,159)"/>
<path d="M0 0 C0.66 0 1.32 0 2 0 C2 7.26 2 14.52 2 22 C-0.64 22 -3.28 22 -6 22 C-6 21.67 -6 21.34 -6 21 C-4.35 20.67 -2.7 20.34 -1 20 C-1.00523682 19.42967041 -1.01047363 18.85934082 -1.01586914 18.27172852 C-1.03658221 15.70199677 -1.0496419 13.13228253 -1.0625 10.5625 C-1.07087891 9.66466797 -1.07925781 8.76683594 -1.08789062 7.84179688 C-1.09111328 6.98779297 -1.09433594 6.13378906 -1.09765625 5.25390625 C-1.10289307 4.46314697 -1.10812988 3.6723877 -1.11352539 2.85766602 C-1 1 -1 1 0 0 Z " fill="#BCBCBC" transform="translate(135,96)"/>
<path d="M0 0 C2.625 0.375 2.625 0.375 5 1 C4.814375 1.61875 4.62875 2.2375 4.4375 2.875 C3.76313824 5.04160178 3.76313824 5.04160178 5 7 C5.99 7.33 6.98 7.66 8 8 C5.03 8 2.06 8 -1 8 C-1.625 5.125 -1.625 5.125 -2 2 C-1.34 1.34 -0.68 0.68 0 0 Z " fill="#686868" transform="translate(93,159)"/>
<path d="M0 0 C2.475 0.99 2.475 0.99 5 2 C3.8553125 2.8971875 3.8553125 2.8971875 2.6875 3.8125 C-0.14002399 6.03799512 -0.14002399 6.03799512 -3 9 C1.29 9.33 5.58 9.66 10 10 C10 10.33 10 10.66 10 11 C5.05 11 0.1 11 -5 11 C-5.33 9.02 -5.66 7.04 -6 5 C-4.02 4.67 -2.04 4.34 0 4 C0 2.68 0 1.36 0 0 Z " fill="#4D4D4D" transform="translate(78,85)"/>
<path d="M0 0 C0.5775 0.226875 1.155 0.45375 1.75 0.6875 C1.42 3.3275 1.09 5.9675 0.75 8.6875 C0.09 8.6875 -0.57 8.6875 -1.25 8.6875 C-1.25 7.6975 -1.25 6.7075 -1.25 5.6875 C-3.89 6.0175 -6.53 6.3475 -9.25 6.6875 C-8.92 6.0275 -8.59 5.3675 -8.25 4.6875 C-7.59 4.6875 -6.93 4.6875 -6.25 4.6875 C-6.25 4.0275 -6.25 3.3675 -6.25 2.6875 C-3.02697842 -0.42041367 -3.02697842 -0.42041367 0 0 Z " fill="#B1B1B1" transform="translate(51.25,73.3125)"/>
<path d="M0 0 C1.134375 0.020625 2.26875 0.04125 3.4375 0.0625 C3.7675 1.0525 4.0975 2.0425 4.4375 3.0625 C-2.1875 6.0625 -2.1875 6.0625 -5.5625 6.0625 C-4.48849278 0.07874549 -4.48849278 0.07874549 0 0 Z " fill="#B5B8B9" transform="translate(23.5625,14.9375)"/>
<path d="M0 0 C3.96 0 7.92 0 12 0 C12 0.66 12 1.32 12 2 C12.99 1.67 13.98 1.34 15 1 C17.1875 1.9375 17.1875 1.9375 19 3 C16.58325776 3.02705308 14.1668206 3.04686438 11.75 3.0625 C10.72712891 3.07506836 10.72712891 3.07506836 9.68359375 3.08789062 C6.30657446 3.10428392 3.22708361 3.05628768 0 2 C0 1.34 0 0.68 0 0 Z " fill="#B9BABA" transform="translate(46,153)"/>
<path d="M0 0 C2.97 0 5.94 0 9 0 C8.195625 0.61875 7.39125 1.2375 6.5625 1.875 C3.96125481 3.74164041 3.96125481 3.74164041 3 6 C3.66 6.33 4.32 6.66 5 7 C4.67 7.66 4.34 8.32 4 9 C4.66 9.33 5.32 9.66 6 10 C5.01 10 4.02 10 3 10 C0 3.375 0 3.375 0 0 Z " fill="#A7A7A7" transform="translate(111,122)"/>
<path d="M0 0 C1.51400391 0.01740234 1.51400391 0.01740234 3.05859375 0.03515625 C4.07050781 0.04417969 5.08242187 0.05320313 6.125 0.0625 C7.29869141 0.07990234 7.29869141 0.07990234 8.49609375 0.09765625 C7.50609375 0.42765625 6.51609375 0.75765625 5.49609375 1.09765625 C5.82609375 2.74765625 6.15609375 4.39765625 6.49609375 6.09765625 C5.17609375 6.09765625 3.85609375 6.09765625 2.49609375 6.09765625 C2.49609375 4.77765625 2.49609375 3.45765625 2.49609375 2.09765625 C1.87734375 2.30390625 1.25859375 2.51015625 0.62109375 2.72265625 C-0.08015625 2.84640625 -0.78140625 2.97015625 -1.50390625 3.09765625 C-2.16390625 2.43765625 -2.82390625 1.77765625 -3.50390625 1.09765625 C-2.50390625 0.09765625 -2.50390625 0.09765625 0 0 Z " fill="#797A7D" transform="translate(59.50390625,158.90234375)"/>
<path d="M0 0 C0.66 0 1.32 0 2 0 C1.67 1.65 1.34 3.3 1 5 C1.66 5.33 2.32 5.66 3 6 C-0.66305234 6.74926071 -3.42355152 7.2380014 -7 6 C-7 5.01 -7 4.02 -7 3 C-4.69 3 -2.38 3 0 3 C0 2.01 0 1.02 0 0 Z " fill="#CDCDCD" transform="translate(110,58)"/>
<path d="M0 0 C1.37478516 0.01740234 1.37478516 0.01740234 2.77734375 0.03515625 C3.69644531 0.04417969 4.61554688 0.05320313 5.5625 0.0625 C6.27277344 0.07410156 6.98304687 0.08570313 7.71484375 0.09765625 C7.38484375 1.08765625 7.05484375 2.07765625 6.71484375 3.09765625 C6.71484375 2.43765625 6.71484375 1.77765625 6.71484375 1.09765625 C5.72484375 1.09765625 4.73484375 1.09765625 3.71484375 1.09765625 C3.71484375 2.41765625 3.71484375 3.73765625 3.71484375 5.09765625 C2.06484375 5.09765625 0.41484375 5.09765625 -1.28515625 5.09765625 C-1.28515625 4.10765625 -1.28515625 3.11765625 -1.28515625 2.09765625 C-1.94515625 1.76765625 -2.60515625 1.43765625 -3.28515625 1.09765625 C-2.28515625 0.09765625 -2.28515625 0.09765625 0 0 Z " fill="#808182" transform="translate(117.28515625,158.90234375)"/>
<path d="M0 0 C2.97 0.495 2.97 0.495 6 1 C6 1.99 6 2.98 6 4 C9.96 4 13.92 4 18 4 C18 4.33 18 4.66 18 5 C12.39 5 6.78 5 1 5 C0.67 3.35 0.34 1.7 0 0 Z " fill="#484A4A" transform="translate(52,162)"/>
<path d="M0 0 C1.98 0.495 1.98 0.495 4 1 C3.71788123 2.6266848 3.42397625 4.25132896 3.125 5.875 C2.96257812 6.77992188 2.80015625 7.68484375 2.6328125 8.6171875 C2 11 2 11 0 13 C-1.16216237 8.73873798 -0.74817864 5.3228099 0 1 C0 0.67 0 0.34 0 0 Z " fill="#979797" transform="translate(103,128)"/>
<path d="M0 0 C2.97 0 5.94 0 9 0 C8.01 0.495 8.01 0.495 7 1 C7 1.66 7 2.32 7 3 C6.01 3.495 6.01 3.495 5 4 C3.86649466 6.01669827 3.86649466 6.01669827 3 8 C2.34 7.34 1.68 6.68 1 6 C1.375 3.375 1.375 3.375 2 1 C1.34 0.67 0.68 0.34 0 0 Z " fill="#D5D5D5" transform="translate(24,21)"/>
<path d="M0 0 C1.65 0 3.3 0 5 0 C5 1.98 5 3.96 5 6 C2.69 5.34 0.38 4.68 -2 4 C-1.34 2.68 -0.68 1.36 0 0 Z " fill="#FAFAFA" transform="translate(35,134)"/>
<path d="M0 0 C2.475 0.495 2.475 0.495 5 1 C4.67 2.98 4.34 4.96 4 7 C2.68 7 1.36 7 0 7 C0 4.69 0 2.38 0 0 Z " fill="#AAACAC" transform="translate(109,160)"/>
<path d="M0 0 C1.2065625 0.0309375 1.2065625 0.0309375 2.4375 0.0625 C1.7775 2.0425 1.1175 4.0225 0.4375 6.0625 C-1.2125 5.7325 -2.8625 5.4025 -4.5625 5.0625 C-3.43829114 0.08386076 -3.43829114 0.08386076 0 0 Z " fill="#B1B1B1" transform="translate(100.5625,159.9375)"/>
<path d="M0 0 C0.33 0.66 0.66 1.32 1 2 C-1.55669335 4.55669335 -4.08929772 6.84608031 -7 9 C-9.1953125 8.64453125 -9.1953125 8.64453125 -11 8 C-9.73427767 6.84852339 -8.46222094 5.70400686 -7.1875 4.5625 C-6.47980469 3.92441406 -5.77210937 3.28632812 -5.04296875 2.62890625 C-3 1 -3 1 0 0 Z " fill="#949494" transform="translate(34,86)"/>
<path d="M0 0 C1.65 0 3.3 0 5 0 C5 1.98 5 3.96 5 6 C3.35 6 1.7 6 0 6 C0 4.02 0 2.04 0 0 Z " fill="#B6B6B8" transform="translate(23,160)"/>
<path d="M0 0 C3.18666175 0.27953173 4.91798366 0.62000954 7.5625 2.3125 C2.89048795 3.51818053 -1.65246292 3.40632426 -6.4375 3.3125 C-4.13464528 0.65966736 -3.72314367 0.33846761 0 0 Z " fill="#BFC1C0" transform="translate(27.4375,152.6875)"/>
<path d="M0 0 C0.99 0 1.98 0 3 0 C3 1.65 3 3.3 3 5 C3.99 5 4.98 5 6 5 C6 5.66 6 6.32 6 7 C4.33388095 7.042721 2.66617115 7.04063832 1 7 C0 6 0 6 -0.0625 2.9375 C-0.041875 1.968125 -0.02125 0.99875 0 0 Z " fill="#979797" transform="translate(132,159)"/>
<path d="M0 0 C2.33944736 0.28730055 4.6739143 0.61936779 7 1 C7.33 1.99 7.66 2.98 8 4 C7.67 4.66 7.34 5.32 7 6 C6.34 6 5.68 6 5 6 C5 5.01 5 4.02 5 3 C3.35 3.33 1.7 3.66 0 4 C-0.33 3.01 -0.66 2.02 -1 1 C-0.67 0.67 -0.34 0.34 0 0 Z " fill="#C8CACD" transform="translate(53,160)"/>
<path d="M0 0 C0.99 0.33 1.98 0.66 3 1 C3.1875 3.8125 3.1875 3.8125 3 7 C2.01 7.99 1.02 8.98 0 10 C-0.66 7.03 -1.32 4.06 -2 1 C-1.34 0.67 -0.68 0.34 0 0 Z " fill="#9C9C9C" transform="translate(64,135)"/>
<path d="M0 0 C0.99 0 1.98 0 3 0 C3.33 1.98 3.66 3.96 4 6 C2.35 6.33 0.7 6.66 -1 7 C-0.67 4.69 -0.34 2.38 0 0 Z " fill="#B3B5B4" transform="translate(127,159)"/>
<path d="M0 0 C3.3 0 6.6 0 10 0 C9.67 2.31 9.34 4.62 9 7 C7.5 5.6875 7.5 5.6875 6 4 C6 3.01 6 2.02 6 1 C4.02 1.33 2.04 1.66 0 2 C0 1.34 0 0.68 0 0 Z " fill="#777877" transform="translate(99,122)"/>
<path d="M0 0 C0.66 0.33 1.32 0.66 2 1 C1.319375 1.7425 0.63875 2.485 -0.0625 3.25 C-2.28353676 5.75949064 -2.28353676 5.75949064 -1.75 8.3125 C-1.5025 8.869375 -1.255 9.42625 -1 10 C-1.99 10 -2.98 10 -4 10 C-5.6875 8 -5.6875 8 -7 6 C-4.69 4.02 -2.38 2.04 0 0 Z " fill="#636363" transform="translate(78,50)"/>
<path d="M0 0 C0.89203125 0.01804687 1.7840625 0.03609375 2.703125 0.0546875 C3.71632813 0.08949219 3.71632813 0.08949219 4.75 0.125 C4.75 0.455 4.75 0.785 4.75 1.125 C3.82767578 1.16367188 3.82767578 1.16367188 2.88671875 1.203125 C-2.24254591 1.4064648 -2.24254591 1.4064648 -6.3125 4.1875 C-6.7765625 5.1465625 -6.7765625 5.1465625 -7.25 6.125 C-8.24 5.795 -9.23 5.465 -10.25 5.125 C-9.25 2.125 -9.25 2.125 -7.515625 0.9453125 C-4.86680319 -0.01374367 -2.80934533 -0.07393014 0 0 Z " fill="#151819" transform="translate(24.25,13.875)"/>
<path d="M0 0 C1.32 0.66 2.64 1.32 4 2 C1.36 3.98 -1.28 5.96 -4 8 C-4.66 7.67 -5.32 7.34 -6 7 C-5.01 6.21625 -4.02 5.4325 -3 4.625 C-1.515 3.325625 -1.515 3.325625 0 2 C0 1.34 0 0.68 0 0 Z " fill="#5B5B5B" transform="translate(86,42)"/>
<path d="M0 0 C1.32 0 2.64 0 4 0 C4 1.32 4 2.64 4 4 C3.34 4 2.68 4 2 4 C2 4.66 2 5.32 2 6 C1.34 6 0.68 6 0 6 C0 4.02 0 2.04 0 0 Z " fill="#B7B8B9" transform="translate(104,160)"/>
<path d="M0 0 C-0.99 0.66 -1.98 1.32 -3 2 C-3.73343428 5.06556598 -3.73343428 5.06556598 -4 8 C-4.99 7.67 -5.98 7.34 -7 7 C-6.34 7 -5.68 7 -5 7 C-5.66 5.02 -6.32 3.04 -7 1 C-4.53721199 -0.231394 -2.7204945 -0.07159196 0 0 Z " fill="#7C7D7E" transform="translate(56,159)"/>
<path d="M0 0 C2.31 0 4.62 0 7 0 C7.33 0.99 7.66 1.98 8 3 C6.35 3.33 4.7 3.66 3 4 C3 3.01 3 2.02 3 1 C2.01 0.67 1.02 0.34 0 0 Z " fill="#ACADAD" transform="translate(20,15)"/>
<path d="M0 0 C-0.66 1.32 -1.32 2.64 -2 4 C-2 3.01 -2 2.02 -2 1 C-2.8971875 1.309375 -2.8971875 1.309375 -3.8125 1.625 C-6 2 -6 2 -9 0 C-5.67465243 -1.10844919 -3.37817425 -0.84454356 0 0 Z " fill="#515153" transform="translate(77,160)"/>
<path d="M0 0 C0.99 0 1.98 0 3 0 C3.125 2.875 3.125 2.875 3 6 C2.34 6.66 1.68 7.32 1 8 C0.34 5.69 -0.32 3.38 -1 1 C-0.67 0.67 -0.34 0.34 0 0 Z " fill="#AEAEAE" transform="translate(132,123)"/>
<path d="M0 0 C0.66 0 1.32 0 2 0 C4 2 4 2 4 6 C1.525 5.01 1.525 5.01 -1 4 C-0.67 2.68 -0.34 1.36 0 0 Z " fill="#C2C3C2" transform="translate(103,123)"/>
<path d="M0 0 C0.99 0 1.98 0 3 0 C3 2.31 3 4.62 3 7 C1.68 5.68 0.36 4.36 -1 3 C-0.67 2.01 -0.34 1.02 0 0 Z " fill="#7D7D7D" transform="translate(61,139)"/>
<path d="M0 0 C1.65 0.33 3.3 0.66 5 1 C5 1.99 5 2.98 5 4 C3.35 4 1.7 4 0 4 C0 2.68 0 1.36 0 0 Z " fill="#C7C7C7" transform="translate(104,95)"/>
<path d="M0 0 C1.32 0.66 2.64 1.32 4 2 C4 2.66 4 3.32 4 4 C2.35 4.33 0.7 4.66 -1 5 C-0.67 3.35 -0.34 1.7 0 0 Z " fill="#B5B5B6" transform="translate(30,161)"/>
<path d="M0 0 C0.99 0 1.98 0 3 0 C5 3 5 3 5 6 C3 6 3 6 1.375 4.6875 C0 3 0 3 0 0 Z " fill="#B5B8B9" transform="translate(46,160)"/>
<path d="M0 0 C2.475 0.99 2.475 0.99 5 2 C0.25 5.875 0.25 5.875 -2 7 C-2 6.01 -2 5.02 -2 4 C-1.34 4 -0.68 4 0 4 C0 2.68 0 1.36 0 0 Z " fill="#585858" transform="translate(78,85)"/>
<path d="M0 0 C1.65 0.33 3.3 0.66 5 1 C3.71034824 2.37562854 2.37310707 3.70766393 1 5 C0.34 5 -0.32 5 -1 5 C-0.67 3.35 -0.34 1.7 0 0 Z " fill="#A8A8A8" transform="translate(105,64)"/>
</svg>
